<svg id="Layer_1" data-name="Layer 1" xmlns="http://www.w3.org/2000/svg" viewBox="0 0 1000 1001.93"><defs><style>.cls-1{fill:#fff;}.cls-2{fill:#fcfcfc;}</style></defs><title>facebook</title><path d="M303.85,479.62a1.5,1.5,0,0,0,0-3,1.5,1.5,0,0,0,0,3Z" transform="translate(1)"/><path d="M730.4,156.28l.33,91.55.08,22.58c0,3.8.05,7.59.05,11.39,0,3.1-.68,5.51-3.87,6.53-2.79.88-5.85.74-8.74.85l-11.42.41-22.84.84c-14.26.52-28.57.78-42.82,1.65-11.24.68-22.77,2-33.26,6.37-10.68,4.42-19.29,12-24.29,22.54-5.61,11.83-7.13,25.28-8.64,38.14a392.29,392.29,0,0,0-.3,89.05q.6,5.49,1.36,10.95c.27,1.91,3.16,1.1,2.9-.79a392.17,392.17,0,0,1-2-89.22c.68-7.39,1.55-14.77,2.68-22.1a108,108,0,0,1,4.19-18.48,46.51,46.51,0,0,1,9-16.11,42.53,42.53,0,0,1,13-9.72c10.23-5.07,21.91-6.68,33.18-7.48,13.8-1,27.68-1.17,41.5-1.67l22.84-.83,11.41-.42c3.36-.12,6.78-.07,10.11-.48,2.47-.31,5.08-1,6.89-2.81,2.07-2.1,2.22-5,2.21-7.77q0-11.28-.08-22.58l-.33-90.94,0-11.45a1.5,1.5,0,0,0-3,0Z" transform="translate(1)"/><path class="cls-1" d="M577.94,459.14l146.24,1.46" transform="translate(1)"/><path d="M577.94,460.64l57.15.57,56.9.57,32.19.32a1.5,1.5,0,0,0,0-3L667,458.53,610.14,458l-32.2-.32a1.5,1.5,0,0,0,0,3Z" transform="translate(1)"/><path class="cls-1" d="M292.25,462.49l124.85.39" transform="translate(1)"/><path d="M292.25,464l97.38.3,27.47.09a1.5,1.5,0,0,0,0-3l-97.39-.31L292.25,461a1.5,1.5,0,0,0,0,3Z" transform="translate(1)"/><path d="M735.13,155.88c-38.25-3.2-76.66-6.41-115.07-4.43-34.48,1.78-69.07,7.86-101,21.36-15,6.35-29.68,14.09-42.09,24.77-11.74,10.1-21.48,22.38-29.58,35.54A142.46,142.46,0,0,0,435.78,256a260.11,260.11,0,0,0-8.23,25.25,254.76,254.76,0,0,0-5.4,25.22c-1.59,9.26-3.25,18.53-4.46,27.85a273.33,273.33,0,0,0-1.87,28.59q-.36,14.18-.32,28.35.09,29,1.83,57.92.41,6.91.92,13.83c.14,1.91,3.14,1.93,3,0q-2.08-28.42-2.6-56.95c-.33-19-.37-38,.63-57a250.35,250.35,0,0,1,3.39-27.84c1.46-8.84,2.89-17.71,4.71-26.48a253.61,253.61,0,0,1,6.72-24.84,151.2,151.2,0,0,1,9.83-24.74,161.7,161.7,0,0,1,27-37.82,118.72,118.72,0,0,1,17.52-14.92,163.79,163.79,0,0,1,21.36-12.17c30.74-15,64.76-22.34,98.69-25.07,37.58-3,75.31-.54,112.79,2.52l13.82,1.15c1.92.16,1.91-2.84,0-3Z" transform="translate(1)"/><path class="cls-1" d="M726.2,461.67,706.49,610.91" transform="translate(1)"/><path d="M724.7,461.67,717,520l-7.67,58.07L705,610.91c-.11.81.77,1.49,1.5,1.5a1.54,1.54,0,0,0,1.5-1.5l7.7-58.31,7.67-58.07,4.34-32.86a1.51,1.51,0,0,0-1.5-1.5,1.53,1.53,0,0,0-1.5,1.5Z" transform="translate(1)"/><path class="cls-1" d="M577.05,613.65q65.22-.85,130.44-1.16" transform="translate(1)"/><path d="M577.05,615.15q25.49-.35,51-.59t50.72-.41l28.74-.16a1.5,1.5,0,0,0,0-3q-25.49.12-51,.32t-50.72.49q-14.37.15-28.74.35a1.5,1.5,0,0,0,0,3Z" transform="translate(1)"/><path d="M290.25,464.12q1.08,29.1,1.15,58.24t-.87,58.26Q290,597,289.14,613.46a1.52,1.52,0,0,0,1.9,1.44,134.05,134.05,0,0,1,25.08-1.67c8.48.09,17,.38,25.46.6l51.34,1.3,28.92.73c1.93,0,1.93-3,0-3l-51.6-1.31c-17.22-.43-34.45-1-51.68-1.28-9.48-.16-19,.05-28.32,1.74l1.9,1.45q1.51-29.1,2-58.23t0-58.26q-.28-16.43-.9-32.85c-.07-1.93-3.07-1.94-3,0Z" transform="translate(1)"/><path class="cls-1" d="M420.32,612.94l.4,109.71,1,277.8" transform="translate(1)"/><path d="M418.82,612.94q.29,75.75.56,151.5.27,75.45.55,150.89l.31,85.12a1.5,1.5,0,0,0,3,0l-.55-151.67q-.29-75.42-.56-150.85l-.31-85a1.5,1.5,0,0,0-3,0Z" transform="translate(1)"/><path class="cls-1" d="M422.61,1000.26q77.11-2.78,154.3-.57" transform="translate(1)"/><path d="M422.61,1001.76q30.09-1.08,60.22-1.41t60.23.11q16.94.24,33.85.73c1.93.06,1.93-2.94,0-3q-30.1-.86-60.23-1t-60.23.56q-16.93.38-33.84,1c-1.93.07-1.94,3.07,0,3Z" transform="translate(1)"/><path class="cls-1" d="M575.92,614.3c1.35,81.47.58,301.2.58,385.2" transform="translate(1)"/><path d="M574.42,614.3c.34,20.48.47,41,.57,61.44q.21,40.39.22,80.8,0,44,0,88,0,41.58-.11,83.14,0,32.8-.08,65.6v6.26a1.5,1.5,0,0,0,3,0q0-31.32.07-62.63.06-40.71.11-81.41,0-44,0-88,0-41.3-.17-82.6c-.1-21.49-.22-43-.52-64.47q0-3-.1-6.09c0-1.92-3-1.93-3,0Z" transform="translate(1)"/><rect class="cls-2" x="0.5" y="0.5" width="999" height="999"/><path class="cls-1" d="M998,1V999H0V1H998m1-1H-1V1000H999V0Z" transform="translate(1)"/><path d="M303.56,479.65a1.5,1.5,0,0,0,0-3,1.5,1.5,0,0,0,0,3Z" transform="translate(1)"/><path d="M730.1,156.31l.33,91.54.09,22.59c0,3.79,0,7.59,0,11.38,0,3.1-.68,5.52-3.87,6.53-2.79.89-5.85.75-8.74.85l-11.42.42-22.84.83c-14.26.52-28.57.79-42.82,1.65-11.24.69-22.77,2-33.26,6.37-10.68,4.43-19.29,12-24.29,22.55-5.61,11.83-7.13,25.28-8.64,38.13a392.29,392.29,0,0,0-.3,89.05q.6,5.49,1.36,11c.27,1.9,3.16,1.09,2.9-.8a392.07,392.07,0,0,1-2-89.21c.68-7.4,1.55-14.77,2.68-22.11a108.39,108.39,0,0,1,4.19-18.48,46.47,46.47,0,0,1,9-16.1,42.49,42.49,0,0,1,13-9.72c10.23-5.08,21.91-6.69,33.18-7.49,13.8-1,27.68-1.16,41.5-1.67l22.84-.83,11.41-.42c3.36-.12,6.78-.06,10.12-.48,2.46-.3,5.07-1,6.88-2.81,2.07-2.1,2.22-5,2.21-7.76q0-11.29-.08-22.59l-.33-90.94,0-11.44a1.5,1.5,0,0,0-3,0Z" transform="translate(1)"/><path class="cls-1" d="M577.64,459.16l146.24,1.47" transform="translate(1)"/><path d="M577.64,460.66l57.15.57,56.9.57,32.19.33a1.5,1.5,0,0,0,0-3l-57.15-.58L609.84,458l-32.2-.32a1.5,1.5,0,0,0,0,3Z" transform="translate(1)"/><path class="cls-1" d="M292,462.51l124.85.4" transform="translate(1)"/><path d="M292,464l97.38.31,27.47.09a1.5,1.5,0,0,0,0-3l-97.39-.31L292,461a1.5,1.5,0,0,0,0,3Z" transform="translate(1)"/><path d="M734.83,155.9c-38.25-3.2-76.66-6.41-115.07-4.43-34.47,1.78-69.07,7.87-101,21.37-15,6.35-29.68,14.09-42.09,24.76C464.94,207.7,455.2,220,447.1,233.14A142.56,142.56,0,0,0,435.48,256a259.22,259.22,0,0,0-8.23,25.25,255.18,255.18,0,0,0-5.4,25.21c-1.59,9.27-3.25,18.53-4.46,27.86a275.71,275.71,0,0,0-1.87,28.59q-.36,14.16-.32,28.34.09,29,1.83,57.93.41,6.92.92,13.83c.14,1.91,3.15,1.92,3,0q-2.08-28.44-2.6-56.95c-.33-19-.37-38,.63-57a253.33,253.33,0,0,1,3.39-27.84c1.47-8.84,2.89-17.7,4.71-26.48A254.37,254.37,0,0,1,433.8,270a151.56,151.56,0,0,1,9.83-24.74,162.12,162.12,0,0,1,27-37.82,119.5,119.5,0,0,1,17.53-14.92,161.3,161.3,0,0,1,21.36-12.16c30.73-15,64.75-22.35,98.68-25.08,37.58-3,75.31-.53,112.8,2.53l13.81,1.14c1.92.16,1.91-2.84,0-3Z" transform="translate(1)"/><path class="cls-1" d="M725.9,461.69,706.19,610.94" transform="translate(1)"/><path d="M724.4,461.69,716.7,520,709,578.07l-4.34,32.87c-.11.81.77,1.49,1.5,1.5a1.54,1.54,0,0,0,1.5-1.5l7.7-58.32,7.67-58.07,4.34-32.86a1.5,1.5,0,1,0-3,0Z" transform="translate(1)"/><path class="cls-1" d="M576.75,613.67q65.22-.85,130.44-1.15" transform="translate(1)"/><path d="M576.75,615.17q25.49-.33,51-.58t50.72-.41q14.37-.1,28.74-.16a1.5,1.5,0,0,0,0-3q-25.49.12-51,.32t-50.72.48l-28.74.35c-1.93,0-1.93,3,0,3Z" transform="translate(1)"/><path d="M290,464.14q1.08,29.12,1.15,58.25t-.87,58.25q-.54,16.43-1.39,32.84a1.53,1.53,0,0,0,1.9,1.45,133.21,133.21,0,0,1,25.08-1.67c8.49.08,17,.38,25.46.59l51.34,1.3,28.92.74c1.93,0,1.93-3,0-3l-51.6-1.31c-17.22-.44-34.45-1-51.68-1.29-9.47-.16-19,.05-28.32,1.75l1.9,1.44q1.52-29.09,2-58.22t0-58.27q-.28-16.42-.9-32.85c-.07-1.92-3.07-1.93-3,0Z" transform="translate(1)"/><path class="cls-1" d="M420,613l.4,109.71,1,277.8" transform="translate(1)"/><path d="M418.52,613q.28,75.75.56,151.5.27,75.43.55,150.89l.31,85.12a1.5,1.5,0,0,0,3,0l-.55-151.67q-.28-75.42-.56-150.85l-.31-85a1.5,1.5,0,0,0-3,0Z" transform="translate(1)"/><path class="cls-1" d="M422.31,1000.29q77.12-2.79,154.3-.57" transform="translate(1)"/><path d="M422.31,1001.79q30.09-1.1,60.22-1.42t60.23.12q16.93.24,33.85.73c1.93,0,1.93-3,0-3q-30.11-.87-60.23-1t-60.23.56q-16.93.36-33.84,1c-1.93.07-1.94,3.07,0,3Z" transform="translate(1)"/><path class="cls-1" d="M575.62,614.33c1.35,81.47.58,301.2.58,385.2" transform="translate(1)"/><path d="M574.12,614.33c.34,20.48.47,41,.57,61.43q.21,40.41.22,80.81,0,44,0,88,0,41.57-.11,83.14,0,32.79-.08,65.59v6.27a1.5,1.5,0,0,0,3,0q0-31.32.07-62.63.06-40.71.11-81.42,0-44,0-88,0-41.29-.17-82.59c-.1-21.49-.22-43-.52-64.47q0-3-.1-6.09c0-1.93-3-1.93-3,0Z" transform="translate(1)"/><path d="M733,208.19a38.59,38.59,0,0,0-1.08-5.83c-.33-1.61-.69-3.21-1.06-4.81a1.83,1.83,0,0,0,.58-1c2.74-12.58,4.06-25.42,5.64-38.17a2,2,0,0,0-2-2,2.05,2.05,0,0,0-2,2l-.39,3.17a4.64,4.64,0,0,0-2.42-2.61c-1.8-.85-3.9-.9-5.84-1.14a9.81,9.81,0,0,0-4,.11l-2.75-.88a1.91,1.91,0,0,0-1.75.36c-5.91-3.2-12.27-2.88-18.4-1.12a44.62,44.62,0,0,0-36.17-3.12l-1.81-.1a2.14,2.14,0,0,0-2.45-.36l-.51.22c-6-.22-12-.19-17.95,0-4.73.14-9.46.36-14.19.6a1.91,1.91,0,0,0-1.66,1c-.44,0-.88,0-1.31,0A173.09,173.09,0,0,0,584.59,158a3,3,0,0,0-2.69-.64,6.4,6.4,0,0,0-2.91,1.86,134.1,134.1,0,0,0-30.84,6.1,1.92,1.92,0,0,0-1.22,1.08l-4.36.86-.12,0a15.71,15.71,0,0,0-6.06,1.52L530,171.46l-13.39,5.59c-8,3.35-15.83,6.93-23,11.79-1.68-1.65-4.2.62-3.14,2.41l-2,.92a1.7,1.7,0,0,0-.93,1.27,23.68,23.68,0,0,0-8,4.2,15.15,15.15,0,0,0-5,6.94,18,18,0,0,0-8.51,8.67,18,18,0,0,0-2.83,2.24,17.25,17.25,0,0,0-4.21,6.52c-.33.4-.64.8-.95,1.21-3.46,1.77-5.73,5.13-7.62,8.46a40.86,40.86,0,0,0-3.15,7c-.77,1.09-1.5,2.19-2.18,3.33-4,6.63-6.69,14-9.29,21.2a40.41,40.41,0,0,0-2,7.45,2.42,2.42,0,0,0-.69,1.48c-.92,8.25-4.08,16.12-5.93,24.18a152.12,152.12,0,0,0-3.11,18.87,1.75,1.75,0,0,0-1.1,1.75c.09,5.14-1.28,10.09-2.43,15.06s-2,10.12-1.27,15.3a1.4,1.4,0,0,0,.4.79c-.86,6.9-1.62,13.88-.73,20.78a196.34,196.34,0,0,0-1.57,39.06A20.34,20.34,0,0,0,419,415a2.06,2.06,0,0,0-.24.93c0,4.24.17,8.47.52,12.68a1.93,1.93,0,0,0-.46,1.24v9.67a2.08,2.08,0,0,0,1,1.73q-.07,4.49-.16,9c-.05,3.16-.11,6.33-.16,9.49a19.26,19.26,0,0,0-7.9,3.26l-7.56.88a1.79,1.79,0,0,0-1.79-1.2l-48.72.45a1.8,1.8,0,0,0-1.71,1.06,181.9,181.9,0,0,0-29-1.42c-7.14.15-14.26.54-21.38,1a2,2,0,0,0-1.19.45h-.5A1.88,1.88,0,0,0,299,463a1.83,1.83,0,0,0-1.53-.73,1.87,1.87,0,0,0-1.92,1.87l-.19-.26a2,2,0,0,0-2.73-.71,2,2,0,0,0-.72,2.73c.5.74,1,1.45,1.6,2.14a1.77,1.77,0,0,0-.38,1.25q.64,12.91.36,25.85a1.66,1.66,0,0,0-.31,1.76l.34,1a2.06,2.06,0,0,0,.34.62,131.13,131.13,0,0,0-1.74,13.68c-.21,2.91-.26,5.81-.24,8.71a29,29,0,0,0,.05,14.63c-.12,2.7-.4,5.39-.36,8.09,0,2.93.47,6.59,2.54,8.85l0,0a446.56,446.56,0,0,0-2.84,54.1,1.82,1.82,0,0,0,.95,1.66c-.12.53-.22,1.06-.31,1.6a2.06,2.06,0,0,0,1.39,2.46A2.1,2.1,0,0,0,295,612a2.19,2.19,0,0,0,1.11,0,51.83,51.83,0,0,1,13.76-1.57,1.8,1.8,0,0,0,.88-.22l10.93-.05a1.38,1.38,0,0,0,.2,0c11.83,1.15,23.69,1.94,35.54,2.83a1.64,1.64,0,0,0,1.68-.87l19.28.89,11.89.54c3.33.16,7.31-.21,10.25,1.63,1.8,1.12,3.48-1,2.8-2.58a18.79,18.79,0,0,1,4.79,1.43c1.53.71,3.31,1.75,4.81.31a2.63,2.63,0,0,0,.76-1.45c1.13.12,2.25.25,3.37.41a10.07,10.07,0,0,1,4.3,1.44c.09.44.2.88.29,1.31a1.48,1.48,0,0,0-.3.26,1.93,1.93,0,0,0-.59,1.41q.33,3.06.64,6.12a3.09,3.09,0,0,0,.19.81,14.88,14.88,0,0,0-.46,4.28,18.8,18.8,0,0,0,.64,4.06,1.82,1.82,0,0,0-.54,1.38q0,7.5.1,15a14.86,14.86,0,0,0-.2,3.14,19.89,19.89,0,0,0,.23,2.18l0,4.83a65.39,65.39,0,0,1-.82,11.94,19.62,19.62,0,0,0-.52,5.86,16.26,16.26,0,0,0,.51,2.4c.07.27.1.57.19.83s0,.22,0,.33l-.14.13a2,2,0,0,0,0,2.83,2,2,0,0,0,.82.49c-.49,6.73.12,13.37.72,20a2.15,2.15,0,0,0-.26.55,15,15,0,0,0-.59,5.33,2,2,0,0,0,.65,1.41c-.51,3.12-1.33,6.22-1.21,9.4,0,.92.13,1.84.23,2.76a8.72,8.72,0,0,0-.1,1.69,19.21,19.21,0,0,0,.63,3.53s0,.08,0,.12c.16,2.9.06,5.81,0,8.71a1.92,1.92,0,0,0,.13.77c-.84,6.56-1.41,12.59-.27,19.53a12,12,0,0,0,.75,2.59,2,2,0,0,0-.35.69,10.74,10.74,0,0,0-.29,3.77c0,.06,0,.12,0,.19q.46,14.19.92,28.39a1.8,1.8,0,0,0-.51,1.38q.75,17.58.43,35.19a2,2,0,0,0,.15.79,119,119,0,0,0,.13,18.4c.07.78.15,1.55.23,2.32a1.86,1.86,0,0,0-1,2.21c.05.2.1.4.16.6a1.88,1.88,0,0,0-.18,1.4l.84,3.64a1.72,1.72,0,0,0-.74,1.57,62.71,62.71,0,0,0,.65,6.57,2.66,2.66,0,0,0-.43,1.19,57.68,57.68,0,0,0,.46,16.29,2.73,2.73,0,0,0-.17.71,70.55,70.55,0,0,0,.44,15.92A1.81,1.81,0,0,0,421,904a102.06,102.06,0,0,0,1.14,14.19,1.79,1.79,0,0,0-.85,1.6c0,6.93-.1,13.86-.07,20.79a54.8,54.8,0,0,0,1.41,11.68,2,2,0,0,0-2.09,2.51q1.11,7.53,2.23,15.07a1.94,1.94,0,0,0-.66,2c.35,1.65.65,3.31.93,5a1.72,1.72,0,0,0-.25.6,48.13,48.13,0,0,0-1,16.7,2.25,2.25,0,0,0,.94,1.65,2.09,2.09,0,0,0,1.55,3.31l22.92,1,11.33.52c3.22.14,6.29,0,8.92-2.06l.12-.12a1.7,1.7,0,0,0,1.6.77l20.88-1,7.43.13,19.18.34a1.83,1.83,0,0,0,1.27-.45,51.23,51.23,0,0,0,16.67-.68c0,.18-.07.36-.1.55a2,2,0,0,0,1.47,1.93c4.51.61,9.15,1.2,13.65.15a14.87,14.87,0,0,0,4.07-1.62,2.92,2.92,0,0,0,2,2.16c2.46.81,5.18-.11,7.41-1.62a1.77,1.77,0,0,0,2.35,1.38,32.68,32.68,0,0,1,9.41-2,2,2,0,0,0,1.93-2.53,67.6,67.6,0,0,1-1.7-13.52,2,2,0,0,0-.69-1.43q.75-8.73,1.32-17.45a1.69,1.69,0,0,0-.36-1.17,21.61,21.61,0,0,0,.93-3.85,23,23,0,0,0-.77-10.71,2,2,0,0,0-.79-1,43.08,43.08,0,0,0,.43-18.16A2.17,2.17,0,0,0,575,928a82.18,82.18,0,0,0,.84-11.63,2,2,0,0,0-.85-1.57q-.32-17.5-.23-35a2.36,2.36,0,0,0,.12-.61q.61-15.46.23-30.94a2.11,2.11,0,0,0-.16-.73,2.44,2.44,0,0,1,0-.27l.15-3.47q.28-6.84.59-13.69a1.74,1.74,0,0,0-.83-1.64c1.17-9.25,2.79-18.5,2.23-27.81a2,2,0,0,0-2.12-1.93,72.33,72.33,0,0,0,0-13.08,2.42,2.42,0,0,0-.26-.89,16,16,0,0,0,.22-9.1,2.22,2.22,0,0,0,2.11-2.57l-1-6.38-.48-3.2a4.11,4.11,0,0,0-.9-2.38h0c.45-2.24,1.07-4.44,1.48-6.68a46.28,46.28,0,0,0,.74-7.24c.16-4.89-.05-9.8-.12-14.69l-.24-15.31c0-.07,0-.13,0-.2a2.51,2.51,0,0,0,.12-.71c0-.86,0-1.71,0-2.57a2,2,0,0,0-.17-.87q-1.1-23.52-.49-47.07a1.8,1.8,0,0,0-1.54-1.9,17.41,17.41,0,0,0,.22-2.72h.07a2.79,2.79,0,0,0,1.36-.9c.73-.83.56-1.62.43-2.64q-.72-5.71-1.36-11.45.53-6.42,1.06-12.84a1.72,1.72,0,0,0-2-1.9,23.17,23.17,0,0,0,0-2.5,3.52,3.52,0,0,0,1.74-3,20.55,20.55,0,0,0-.14-5.86,19.88,19.88,0,0,0-1.72-5.38,6.06,6.06,0,0,1,1.1-1.48,6.41,6.41,0,0,1,1.25-1,29.64,29.64,0,0,0,5.65.26,1.71,1.71,0,0,0,1.56.69l21.95-1.4a1.83,1.83,0,0,0,1.92,1.75L638,613l14.94-.26c2.15,0,4.64.27,6.73-.36a4.94,4.94,0,0,0,2.17-1.35l2.33.38a5.92,5.92,0,0,0,3.75-.26,1,1,0,0,0,.29.09,157.68,157.68,0,0,0,21.58,2c3.24.06,6.93.43,10.06-.57a8.32,8.32,0,0,0,1.75-.79,2.67,2.67,0,0,0,1.44.88,3.48,3.48,0,0,0,.83.1.22.22,0,0,1,0,.08,2,2,0,0,0,2.46,1.39l2.44-.4a2,2,0,0,0,1.47-1.93l.38-25c.11-7.76-.14-15.75,2.65-23.12a2,2,0,0,0-1.33-2.44c.58-3.19,1.32-6.35,2-9.53a64.89,64.89,0,0,0,1.42-11.94c0-2,0-4-.11-5.94a2.24,2.24,0,0,0,1.23-1.73A123,123,0,0,0,717.49,516a2,2,0,0,0,1.24-1.76c.57-8.42,2.28-16.8,2.65-25.24a36.61,36.61,0,0,0,1.78-15.4l2.52-9.27a2.06,2.06,0,0,0,0-.85c1.94-.58,1.74-3.9-.61-3.9a1.91,1.91,0,0,0-1.92,2.18L708.88,461a1.93,1.93,0,0,0-1.74,1.06,72.09,72.09,0,0,0-8.28-1.62,2,2,0,0,0-2,1.71c-8.62-1.55-17.81-.83-26.59-1.5l-4.59-.49a1.75,1.75,0,0,0-1.83,1.31q-4.93-.53-9.9-.86a1.66,1.66,0,0,0-1.73,1c-1.78-.27-3.6-.49-5.48-.63a117.64,117.64,0,0,0-19.41.3c-3.78-.55-7.58-1-11.4-1.22-4.43-.2-8.86.19-13.29.29a227,227,0,0,1-26.45-1.41c-.94-6.23-1.85-12.47-2.64-18.71a2.15,2.15,0,0,0,1.54-1.86,35.55,35.55,0,0,0-1-9.29c-.59-2.82-1.17-5.64-1.76-8.46a1.91,1.91,0,0,0,2.18-1.91c0-7.81-1.33-15.48-2.34-23.19a1.7,1.7,0,0,0,1-1.74c-.67-10.12,3.19-19.95,1.71-30.09a1.64,1.64,0,0,0-.83-1.14c1.45-5.42,2.73-10.9,2.65-16.48a2,2,0,0,0,1.3-.57l.31-.41a2.07,2.07,0,0,0,.28-1l.46-4.24a1.9,1.9,0,0,0-.43-1.22,16,16,0,0,0,1.53-4,41,41,0,0,0,1.87-4.88,56.1,56.1,0,0,1,7.06-14.44A55.2,55.2,0,0,1,608.36,298a1.78,1.78,0,0,0,2.55.55c4-2.58,8.62-3.84,13.27-4.8a2.22,2.22,0,0,0,1.57.79c9.17.85,18.19-.08,27.19-1.48q20.25-1.49,40.55-2.22,7.34-.25,14.68-.42h.05a2.05,2.05,0,0,0,3,1.33,17.2,17.2,0,0,1,7.65-1.83c2.65,0,5.37.09,7.87-.94a7.87,7.87,0,0,0,4.81-4.82,11.28,11.28,0,0,0,.23-3.93,19.68,19.68,0,0,1,.18-4.2,22.88,22.88,0,0,0,0-8.21,26,26,0,0,0-1.66-5c1.18-2.42,1-5.1.42-7.71v0a1.65,1.65,0,0,0,0-.32l-.06-22.1a1.84,1.84,0,0,0-.32-1.08c.11-1.09.23-2.17.37-3.25a2,2,0,0,0,1.73-1.87c.41-5-.56-9.81-1.71-14.6A3.66,3.66,0,0,0,733,208.19ZM712.28,287l0-.45,1.28.09C713.15,286.76,712.71,286.89,712.28,287Zm18.21-108.43-.24-.42c.19-.57.37-1.15.54-1.73Z" transform="translate(1)"/></svg>